<svg width="65" height="68" xmlns="http://www.w3.org/2000/svg" xmlns:xlink="http://www.w3.org/1999/xlink"><defs><rect id="a" x="43.724" y="25" width="15.943" height="27.13" rx="3"/></defs><g transform="translate(0 1)" fill="none" fill-rule="evenodd"><path d="M8.595 45.11h46.889V16.966a2.5 2.5 0 0 0-2.5-2.5H11.095a2.5 2.5 0 0 0-2.5 2.5V45.11zM63.772 45.205H1.228v.947c0 .896.958 1.67 2.185 1.67h58.174c1.227 0 2.185-.774 2.185-1.67v-.947z" stroke="#263238"/><use fill="#FFF" xlink:href="#a"/><rect stroke="#263238" x="44.224" y="25.5" width="14.943" height="26.13" rx="3"/><ellipse fill="#263238" cx="32.04" cy="17.582" rx="1" ry="1"/><g stroke-linecap="square" stroke="#14CDBA"><path d="M53.615 0H61v7.233M60.792.203l-9.035 8.85M1.076 7.309V-.076h7.233M1.308.103l8.849 9.035M8.385 66H1v-7.233M1.208 65.797l9.035-8.85M60.924 58.691v7.385h-7.233M60.692 65.897l-8.849-9.035"/></g></g></svg>