<?xml version="1.0" encoding="UTF-8"?>
<svg width="86px" height="59px" viewBox="0 0 86 59" version="1.1" xmlns="http://www.w3.org/2000/svg" xmlns:xlink="http://www.w3.org/1999/xlink">
    <!-- Generator: Sketch 49 (51002) - http://www.bohemiancoding.com/sketch -->
    <title>setup-download-desktop</title>
    <desc>Created with Sketch.</desc>
    <defs></defs>
    <g id="Page-1" stroke="none" stroke-width="1" fill="none" fill-rule="evenodd">
        <g id="Windows-003" transform="translate(-469.000000, -217.000000)">
            <g id="setup-download-desktop" transform="translate(469.000000, 217.000000)">
                <path d="M10.5,54.5 L75.5,54.5 L75.5,12.5471698 C75.5,11.4133841 74.6124951,10.5 73.525,10.5 L12.475,10.5 C11.3875049,10.5 10.5,11.4133841 10.5,12.5471698 L10.5,54.5 Z" id="Rectangle-3" stroke="#324148"></path>
                <g id="Group-5" transform="translate(35.000000, 0.000000)">
                    <rect id="Rectangle-2" fill="#FFFFFF" x="0" y="0" width="18" height="21"></rect>
                    <path d="M8.5,1.5 L8.5,17.5" id="Line" stroke="#324148" stroke-linecap="square"></path>
                    <polyline id="Path-7" stroke="#324148" stroke-linecap="square" transform="translate(8.500000, 13.500000) rotate(-45.000000) translate(-8.500000, -13.500000) " points="5 10 5 17 12 17"></polyline>
                </g>
                <path d="M85.5,54.5 L0.5,54.5 L0.5,56 C0.5,57.3572705 1.88415118,58.5 3.63380282,58.5 L82.3661972,58.5 C84.1158488,58.5 85.5,57.3572705 85.5,56 L85.5,54.5 Z" id="Rectangle-3" stroke="#324148"></path>
                <g id="outline" transform="translate(36.000000, 26.000000)" stroke="#26A79A">
                    <circle id="Oval" cx="8" cy="8" r="7.5"></circle>
                    <circle id="Oval" cx="8" cy="11" r="4.5"></circle>
                    <circle id="Oval" cx="8" cy="13" r="2.5"></circle>
                </g>
            </g>
        </g>
    </g>
</svg>