<svg width="45" height="53" xmlns="http://www.w3.org/2000/svg" xmlns:xlink="http://www.w3.org/1999/xlink"><defs><path d="M21.17 0h12.5a2 2 0 0 1 2 2v3.667h-16.5V2a2 2 0 0 1 2-2z" id="a"/><rect id="b" width="33" height="40" rx="2"/></defs><g fill="none" fill-rule="evenodd"><rect stroke="#324148" x="10.5" y="1.5" width="34" height="43" rx="3"/><use fill="#FFF" xlink:href="#a"/><path stroke="#324148" d="M19.67 5.167h15.5V2a1.5 1.5 0 0 0-1.5-1.5h-12.5a1.5 1.5 0 0 0-1.5 1.5v3.167z"/><path d="M22.8 0h9.24v1a1 1 0 0 1-1 1H23.8a1 1 0 0 1-1-1V0z" fill="#324148"/><g><g transform="translate(0 13)"><use fill="#FFF" xlink:href="#b"/><rect stroke="#00C8B4" x=".5" y=".5" width="32" height="39" rx="2"/></g></g></g></svg>